<svg width="30" height="34" viewBox="0 0 30 34" fill="none" xmlns="http://www.w3.org/2000/svg">
<path fill-rule="evenodd" clip-rule="evenodd" d="M30.0001 25C30.0001 27.2101 29.1221 29.3298 27.5593 30.8926C25.9965 32.4554 23.8769 33.3333 21.6667 33.3333H13.3334C12.8914 33.3333 12.4675 33.1577 12.1549 32.8452C11.8423 32.5326 11.6667 32.1087 11.6667 31.6667C11.6667 31.2246 11.8423 30.8007 12.1549 30.4882C12.4675 30.1756 12.8914 30 13.3334 30H21.6667C22.9928 30 24.2646 29.4732 25.2023 28.5355C26.14 27.5979 26.6667 26.3261 26.6667 25V8.33333C26.6667 7.00725 26.14 5.73548 25.2023 4.7978C24.2646 3.86012 22.9928 3.33333 21.6667 3.33333H13.3334C12.8914 3.33333 12.4675 3.15774 12.1549 2.84518C11.8423 2.53262 11.6667 2.10869 11.6667 1.66667C11.6667 1.22464 11.8423 0.800716 12.1549 0.488155C12.4675 0.175595 12.8914 0 13.3334 0H21.6667C23.8769 0 25.9965 0.877974 27.5593 2.44078C29.1221 4.00358 30.0001 6.1232 30.0001 8.33333V25Z" fill="#EA5105"/>
<path fill-rule="evenodd" clip-rule="evenodd" d="M12.45 8.85995C12.5997 8.70011 12.7794 8.57132 12.9788 8.48095C13.1783 8.39058 13.3936 8.3404 13.6124 8.33328C13.8313 8.32616 14.0494 8.36224 14.2543 8.43945C14.4592 8.51667 14.6469 8.63351 14.8067 8.78329L22.8067 16.2833C22.9732 16.4392 23.1059 16.6276 23.1967 16.8369C23.2874 17.0462 23.3343 17.2718 23.3343 17.5C23.3343 17.7281 23.2874 17.9537 23.1967 18.163C23.1059 18.3723 22.9732 18.5607 22.8067 18.7166L14.8067 26.2166C14.6469 26.3663 14.4592 26.4831 14.2543 26.5603C14.0494 26.6374 13.8313 26.6735 13.6125 26.6664C13.3936 26.6593 13.1783 26.6091 12.9789 26.5188C12.7794 26.4285 12.5997 26.2997 12.45 26.14C12.3003 25.9802 12.1835 25.7925 12.1064 25.5876C12.0292 25.3827 11.9931 25.1646 12.0003 24.9457C12.0074 24.7269 12.0575 24.5116 12.1478 24.3122C12.2382 24.1127 12.3669 23.933 12.5267 23.7833L17.4517 19.1666H1.66667C1.22464 19.1666 0.800716 18.991 0.488155 18.6785C0.175595 18.3659 0 17.942 0 17.5C0 17.0579 0.175595 16.634 0.488155 16.3214C0.800716 16.0089 1.22464 15.8333 1.66667 15.8333H17.4517L12.5267 11.2166C12.3668 11.067 12.238 10.8873 12.1477 10.6878C12.0573 10.4883 12.0071 10.273 12 10.0542C11.9929 9.83531 12.0289 9.6172 12.1062 9.41229C12.1834 9.20738 12.3002 9.01969 12.45 8.85995Z" fill="#EA5105"/>
</svg>
